<?xml version="1.0" standalone="no"?>
<!DOCTYPE svg PUBLIC "-//W3C//DTD SVG 20010904//EN"
 "http://www.w3.org/TR/2001/REC-SVG-20010904/DTD/svg10.dtd">
<svg version="1.0" xmlns="http://www.w3.org/2000/svg"
 width="1062.000000pt" height="1056.000000pt" viewBox="0 0 1062.000000 1056.000000"
 preserveAspectRatio="xMidYMid meet">

<g transform="translate(0.000000,1056.000000) scale(0.100000,-0.100000)"
fill="#000000" stroke="none">
<path d="M3396 8905 c-9 -9 -16 -20 -16 -24 0 -4 29 -23 64 -43 41 -24 80 -58
112 -97 54 -67 78 -78 68 -33 -3 15 -7 34 -8 42 -1 8 -17 38 -34 65 -47 76
-150 125 -186 90z"/>
<path d="M3112 8789 c-189 -24 -315 -101 -379 -231 -17 -35 -33 -82 -36 -106
-2 -23 -6 -44 -8 -46 -2 -1 -30 -15 -61 -30 -32 -15 -58 -32 -58 -37 0 -5 -5
-9 -12 -9 -38 0 -183 -221 -207 -314 -17 -68 -14 -182 5 -211 21 -33 50 -35
33 -3 -7 14 -10 48 -6 95 7 87 54 196 114 258 57 60 124 115 140 115 8 0 12 4
9 8 -3 5 11 14 30 21 33 12 37 11 58 -12 12 -13 35 -32 50 -42 57 -37 216 -11
216 35 0 11 3 19 8 19 19 -3 23 2 11 17 -7 9 -18 26 -24 38 -20 40 -90 66
-183 66 l-85 0 7 38 c3 21 13 54 22 73 21 43 76 118 87 119 5 0 28 14 52 30
24 17 50 30 58 30 7 0 17 3 21 7 14 14 140 35 228 37 53 2 108 -2 140 -11 29
-8 58 -15 63 -17 14 -3 67 -38 87 -58 10 -10 25 -18 33 -18 41 0 -50 76 -164
137 -26 14 -148 15 -249 2z m-187 -471 c14 -6 25 -14 25 -17 0 -14 -92 -33
-125 -27 -37 7 -78 43 -68 59 7 12 133 1 168 -15z"/>
<path d="M3057 8683 c-46 -26 -70 -63 -82 -126 -10 -51 11 -56 31 -8 10 26 23
41 34 41 9 0 25 9 34 19 10 11 29 24 44 30 19 8 27 19 27 35 0 35 -34 38 -88
9z"/>
<path d="M3289 8655 c-66 -18 -138 -56 -144 -75 -3 -10 -14 -25 -25 -35 -32
-29 -26 -87 15 -162 40 -73 43 -104 14 -152 -49 -81 -173 -141 -324 -158 -176
-21 -415 -259 -415 -414 0 -55 14 -77 58 -88 l37 -10 -1 -55 c-2 -97 25 -106
32 -10 3 45 9 61 29 80 15 13 30 24 36 24 19 0 112 104 130 146 16 34 17 47 8
67 -31 69 -118 20 -187 -105 -17 -29 -32 -65 -36 -79 -7 -34 -28 -42 -55 -23
-54 38 -4 176 98 274 64 62 89 80 122 92 16 5 29 14 29 18 0 4 8 11 18 15 26
11 161 42 215 50 26 4 47 11 47 15 0 4 8 10 18 13 94 30 182 132 182 210 0 35
-23 93 -43 108 -11 8 -4 59 10 71 7 6 13 17 13 24 0 7 14 20 30 29 17 9 30 19
30 24 0 5 17 17 37 26 28 14 51 16 100 12 57 -6 62 -5 49 9 -8 8 -13 21 -10
29 4 9 -7 19 -31 29 -21 9 -38 16 -39 15 0 0 -22 -7 -47 -14z m-569 -863 c0
-39 -123 -172 -159 -172 -13 0 -15 16 -2 24 4 3 11 19 15 36 3 17 12 38 21 46
8 8 21 24 28 34 14 21 64 50 85 50 6 0 12 -8 12 -18z"/>
<path d="M3657 8613 c-4 -3 -7 -15 -7 -26 0 -28 -35 -73 -67 -86 -38 -16 -96
-85 -110 -133 -20 -70 21 -148 79 -148 15 0 28 3 28 8 -1 13 -27 42 -39 42
-16 0 -33 50 -27 77 6 21 97 117 133 139 10 6 23 21 29 33 9 18 13 19 23 7 17
-20 -4 -98 -35 -127 -33 -31 -31 -49 6 -49 43 0 65 39 64 112 -1 32 3 58 7 58
5 0 20 -23 35 -51 24 -49 25 -57 19 -153 -4 -56 -6 -140 -6 -188 l1 -88 -28
-1 c-19 0 -36 -11 -58 -39 -29 -36 -33 -38 -46 -22 -19 21 -38 77 -38 109 0
31 -24 25 -28 -7 -6 -39 8 -88 34 -120 l26 -30 -29 -11 c-15 -6 -48 -14 -73
-16 -39 -4 -51 -1 -78 22 l-32 27 0 -26 c0 -18 8 -30 30 -41 33 -17 125 -20
164 -5 29 11 86 63 111 103 11 17 24 26 32 23 8 -3 24 -1 35 5 18 10 20 17 13
82 -4 51 -1 95 10 152 16 74 14 152 -3 180 -4 6 -7 15 -8 21 -6 35 -42 89 -89
129 -53 45 -66 51 -78 38z"/>
<path d="M3492 8585 c-40 -18 -119 -90 -140 -130 -9 -16 -19 -52 -22 -80 -4
-39 -9 -51 -25 -54 -28 -5 -44 -31 -45 -71 0 -31 6 -40 60 -79 33 -24 60 -46
60 -48 0 -19 -25 -83 -32 -83 -4 0 -8 -6 -8 -14 0 -16 -99 -87 -143 -101 -35
-11 -47 -39 -22 -49 27 -10 105 13 141 42 35 27 81 90 76 105 -1 4 3 18 10 30
32 58 12 107 -62 148 -29 16 -40 29 -40 46 0 20 5 23 35 23 25 0 41 -7 57 -25
26 -30 38 -32 38 -5 0 11 -16 36 -35 55 -29 28 -35 39 -29 62 3 15 7 35 8 43
1 8 8 26 16 40 14 27 70 94 70 85 0 -4 7 1 16 9 8 9 24 16 35 16 14 0 19 7 19
25 0 14 -1 25 -2 25 -2 -1 -18 -7 -36 -15z"/>
<path d="M3713 8283 c-18 -7 -16 -48 2 -63 20 -17 47 5 43 34 -4 30 -19 40
-45 29z"/>
<path d="M3186 8121 c-51 -105 -196 -208 -292 -208 -22 0 -57 -6 -76 -12 -28
-9 -35 -16 -31 -31 7 -25 22 -29 74 -19 66 12 69 12 84 -25 10 -24 12 -43 5
-67 -11 -39 -11 -40 17 -33 19 5 21 11 17 51 -2 25 -9 53 -14 63 -16 29 -12
38 19 45 16 3 35 13 42 21 6 8 16 14 21 14 6 0 24 11 42 25 84 68 112 104 123
162 14 76 1 82 -31 14z"/>
<path d="M2250 7900 c0 -53 20 -98 59 -134 38 -36 51 -28 22 13 -22 30 -29 50
-37 104 -3 26 -25 57 -38 57 -3 0 -6 -18 -6 -40z"/>
<path d="M2149 7851 c-42 -13 -72 -32 -119 -75 -59 -54 -82 -98 -88 -172 -6
-78 10 -126 54 -162 30 -25 33 -30 19 -42 -8 -7 -15 -17 -15 -23 0 -6 -6 -18
-14 -26 -8 -9 -22 -53 -31 -98 -14 -68 -15 -92 -5 -140 19 -95 28 -117 68
-156 l38 -37 31 43 30 43 -23 28 c-13 15 -24 36 -24 47 0 10 -6 19 -12 19 -9
0 -8 4 2 10 13 8 13 10 -2 10 -11 0 -15 7 -13 25 1 14 -1 25 -6 25 -15 0 -7
100 12 153 10 28 33 66 51 82 19 17 32 38 30 48 -4 20 -6 20 -48 5 -69 -25
-120 29 -117 124 2 51 16 86 45 106 10 7 18 21 18 30 0 33 84 88 150 98 22 4
40 10 40 15 0 7 -34 30 -42 28 -2 0 -15 -4 -29 -8z"/>
<path d="M2263 7709 c-30 -11 -78 -98 -93 -169 -11 -53 -11 -62 6 -91 11 -17
27 -37 36 -43 20 -12 36 0 21 15 -6 6 -9 18 -6 25 3 8 1 20 -5 27 -13 16 -9
86 6 114 7 12 12 30 12 40 0 10 14 30 32 45 36 29 30 52 -9 37z"/>
<path d="M3119 7487 c-43 -32 -47 -55 -50 -252 -3 -249 -4 -215 10 -650 12
-403 13 -414 35 -503 8 -31 18 -79 21 -107 4 -27 18 -90 31 -140 14 -49 30
-111 36 -137 6 -26 15 -45 20 -42 4 3 5 -2 2 -10 -3 -9 -1 -16 5 -16 6 0 8 -6
5 -14 -3 -7 5 -37 17 -67 19 -48 61 -165 144 -399 14 -41 33 -90 41 -107 8
-18 26 -63 40 -100 31 -82 54 -123 70 -123 24 0 21 26 -9 85 -16 33 -33 74
-38 90 -4 17 -17 57 -29 90 -12 33 -24 71 -27 85 -2 14 -8 27 -14 28 -5 2 -7
7 -4 12 3 4 -2 27 -11 51 -8 24 -16 56 -16 71 -1 15 -7 29 -15 32 -9 4 -12 13
-8 26 4 12 2 20 -5 20 -7 0 -9 8 -5 20 3 11 2 20 -3 20 -13 0 -23 82 -11 97 7
8 4 15 -11 23 -16 9 -19 15 -10 25 8 9 7 17 -5 29 -9 8 -16 31 -17 51 -1 19
-5 35 -9 35 -4 0 -10 17 -14 38 -4 20 -10 42 -15 47 -4 6 -11 42 -14 80 -11
129 -17 180 -23 195 -3 8 -7 38 -8 66 -1 27 -4 54 -7 60 -14 24 -26 355 -33
909 -2 199 -7 367 -10 376 -7 18 -35 21 -56 6z"/>
<path d="M2611 7034 l-31 -26 0 -177 c0 -249 16 -445 55 -681 8 -47 26 -157
40 -245 20 -127 32 -174 59 -230 18 -38 45 -99 59 -135 40 -103 96 -220 105
-220 10 0 32 -45 32 -64 0 -8 27 -62 61 -121 33 -59 58 -109 56 -111 -2 -3
-18 7 -35 21 -16 14 -35 25 -41 25 -6 0 -11 4 -11 8 0 5 -18 18 -40 31 -22 12
-45 31 -50 42 -6 10 -17 19 -26 19 -8 0 -17 6 -20 14 -3 7 -27 23 -55 36 -27
13 -49 27 -49 32 0 4 -7 8 -15 8 -8 0 -15 5 -15 10 0 6 -6 10 -14 10 -8 0 -16
3 -18 8 -1 4 -28 27 -58 52 -104 86 -220 219 -223 258 0 11 -5 18 -9 16 -4 -3
-9 10 -10 28 0 18 -2 38 -3 43 -2 6 -3 36 -4 68 -1 53 -3 59 -33 77 l-33 20
-9 -62 c-19 -130 27 -247 146 -373 70 -74 221 -194 295 -235 88 -49 315 -203
356 -244 20 -19 54 -68 75 -108 21 -40 54 -98 74 -128 19 -30 50 -89 68 -130
18 -41 38 -82 45 -90 23 -26 101 -201 130 -290 34 -104 73 -150 108 -127 32
21 33 59 3 93 l-25 29 -1 -35 0 -35 -16 30 c-9 17 -17 38 -19 47 -6 27 -90
216 -130 293 -58 110 -72 136 -100 195 -15 30 -33 66 -40 80 -7 14 -18 36 -23
50 -6 14 -29 62 -51 108 -23 46 -41 92 -41 103 0 10 -4 19 -8 19 -9 0 -52 84
-52 102 0 6 -7 16 -15 22 -9 6 -17 22 -18 35 -1 12 -10 27 -19 32 -10 6 -16
14 -13 19 3 5 -4 24 -15 42 -11 18 -20 40 -20 49 0 9 -6 19 -14 22 -8 3 -17
20 -21 37 -4 18 -23 58 -42 91 -23 39 -35 71 -35 96 0 21 -6 46 -14 57 -8 11
-14 32 -14 46 0 14 -4 30 -9 35 -21 23 -102 432 -101 505 1 19 -1 51 -3 70 -3
19 -8 62 -11 95 -3 33 -8 83 -11 110 -13 120 -15 149 -20 310 -6 184 -11 231
-25 240 -4 3 -22 -7 -39 -21z"/>
<path d="M3933 6512 c-20 -16 -22 -26 -24 -182 -2 -192 17 -790 31 -935 14
-144 49 -445 56 -478 7 -35 64 -118 123 -180 25 -26 49 -54 53 -61 4 -7 23
-30 44 -52 58 -62 112 -132 119 -154 6 -19 35 -29 35 -11 0 9 -84 136 -122
185 -13 16 -50 57 -83 90 -85 85 -115 134 -121 192 -7 86 -15 157 -25 239 -6
44 -12 271 -14 505 -3 367 -10 671 -20 815 -3 45 -19 54 -52 27z"/>
<path d="M5229 6389 c-21 -23 -48 -56 -60 -74 -25 -36 -83 -54 -117 -37 -9 5
-44 12 -76 16 -33 4 -65 11 -70 16 -19 15 -142 28 -154 15 -12 -12 16 -25 88
-41 223 -49 269 -54 315 -30 29 15 115 103 108 110 -3 2 5 9 16 16 45 24 35
-33 -23 -126 -20 -33 -23 -44 -13 -52 7 -6 18 -8 24 -4 12 8 74 132 66 132 -3
0 0 7 7 15 10 12 8 21 -10 50 -29 46 -54 45 -101 -6z"/>
<path d="M4663 6312 c-14 -9 -6 -24 22 -40 20 -11 20 -12 -3 -18 -17 -5 -20
-10 -12 -19 17 -20 109 -56 164 -65 78 -12 128 -35 160 -72 53 -62 116 -166
147 -245 17 -43 39 -96 49 -118 10 -22 21 -57 25 -77 4 -21 11 -38 16 -38 5 0
9 -8 9 -17 0 -24 47 -158 81 -231 16 -34 29 -66 29 -72 0 -5 17 -47 39 -93 40
-88 133 -217 156 -217 8 0 23 12 34 26 l21 26 -34 42 c-37 44 -89 145 -126
241 -13 33 -33 83 -46 110 -12 28 -36 88 -54 135 -29 79 -67 164 -90 200 -6 8
-14 26 -20 40 -5 14 -16 34 -22 45 -69 108 -90 143 -94 162 -3 12 -12 24 -20
27 -8 3 -14 10 -14 17 0 13 -45 63 -82 90 -17 12 -70 28 -135 40 -117 22 -163
36 -163 51 0 11 1 11 128 -21 93 -23 102 -25 102 -13 0 5 -35 19 -77 31 -80
23 -128 45 -151 68 -15 15 -22 16 -39 5z"/>
<path d="M5228 6143 c21 -31 122 -227 122 -238 0 -4 14 -27 30 -52 17 -24 30
-47 30 -50 0 -3 15 -26 34 -52 18 -25 44 -65 57 -87 13 -23 52 -75 87 -115 93
-109 103 -121 121 -149 9 -14 26 -33 38 -43 12 -9 36 -35 53 -57 l31 -39 -41
-58 c-59 -83 -162 -214 -231 -294 -43 -49 -38 -66 68 -222 29 -42 59 -90 68
-107 17 -33 20 -91 6 -118 -15 -26 -52 -248 -53 -314 -1 -44 4 -66 19 -85 25
-35 115 -66 157 -55 l31 8 -40 18 c-72 32 -70 30 -67 82 2 27 5 50 6 52 12 11
99 14 461 17 226 2 505 4 621 5 116 1 217 5 224 10 23 14 22 53 -4 100 -13 25
-39 97 -56 160 -35 125 -43 140 -71 140 -28 0 -30 -13 -14 -82 8 -35 15 -67
15 -72 0 -9 -541 2 -673 14 -136 12 -384 12 -392 0 -4 -6 -5 -14 -2 -17 15
-15 539 -36 919 -37 l157 -1 20 -85 c11 -46 19 -85 18 -86 -1 -1 -245 -4 -542
-7 -302 -3 -570 -11 -609 -17 -38 -6 -70 -9 -72 -7 -2 1 6 41 17 87 11 47 22
107 24 134 3 27 9 54 15 60 5 5 10 17 10 25 0 21 -72 165 -87 174 -7 5 -11 13
-8 18 4 5 11 7 16 4 5 -4 9 -2 9 4 0 6 6 8 14 5 8 -3 17 -1 21 5 4 7 -9 11
-39 11 -37 0 -50 6 -78 33 -85 84 -85 91 2 182 11 12 20 25 20 31 0 5 18 28
39 51 22 22 37 44 34 47 -3 3 2 8 11 12 9 3 16 10 16 16 0 5 6 15 13 23 20 19
226 19 247 0 9 -8 47 -28 84 -45 55 -25 82 -31 135 -31 71 0 88 5 263 75 80
32 135 47 187 52 71 7 75 6 146 -31 66 -34 151 -105 207 -174 18 -21 18 -21
-45 -22 -93 -3 -526 -8 -931 -12 -248 -2 -361 -6 -363 -14 -2 -6 9 -12 24 -15
38 -5 1020 -3 1211 4 l152 5 27 -36 c14 -20 42 -52 61 -73 l34 -36 -28 -37
-28 -38 -241 7 c-132 3 -341 8 -465 10 -124 3 -295 8 -380 12 -85 4 -166 7
-180 7 -85 -1 -120 -4 -120 -12 0 -8 64 -16 220 -27 41 -2 92 -7 112 -9 40 -5
276 -12 723 -21 154 -3 282 -8 285 -10 8 -9 -119 -126 -129 -120 -5 4 -4 -7 2
-24 12 -33 26 -37 58 -17 33 19 79 64 79 76 0 6 5 11 11 11 6 0 33 24 60 53
l48 52 16 -23 c15 -20 33 -41 115 -135 22 -25 143 -151 368 -380 65 -67 92
-84 148 -91 63 -9 174 -59 174 -79 0 -7 -18 -4 -89 14 -19 5 -37 6 -39 4 -10
-10 31 -57 71 -82 57 -36 158 -93 165 -93 16 0 -37 43 -82 66 -86 45 -99 63
-40 56 34 -4 53 7 54 31 0 26 -88 80 -208 127 -18 7 -63 43 -101 79 -37 36
-90 87 -119 112 -29 26 -52 52 -52 58 0 6 -7 11 -15 11 -8 0 -15 3 -15 8 0 10
-58 72 -94 100 -16 12 -26 22 -22 22 3 0 -2 8 -11 18 -10 10 -29 32 -43 50
-14 17 -29 32 -33 32 -9 0 -45 33 -38 34 2 1 1 10 -3 21 -3 11 -24 30 -46 43
-39 22 -40 23 -24 47 18 27 26 15 -93 142 -12 12 -20 23 -18 23 2 0 -6 10 -18
23 -38 40 -62 72 -60 79 2 4 -6 10 -17 13 -11 4 -20 11 -20 17 0 6 -17 25 -37
43 -21 18 -54 47 -73 65 -19 17 -64 46 -100 63 -58 28 -73 31 -149 29 -46 -1
-89 -6 -95 -11 -6 -5 -31 -14 -56 -21 -25 -7 -83 -31 -130 -53 -76 -36 -95
-41 -176 -45 -82 -4 -95 -2 -138 21 -25 13 -88 64 -138 111 -76 72 -96 86
-115 81 -18 -4 -31 2 -51 23 -75 81 -99 109 -105 125 -3 9 -13 17 -22 17 -8 0
-14 3 -13 8 3 10 -34 65 -55 81 -10 7 -16 19 -13 27 3 8 1 14 -4 14 -5 0 -21
22 -34 49 -14 27 -32 51 -41 54 -8 4 -15 11 -15 18 0 6 -14 24 -30 39 -17 16
-30 30 -30 32 3 6 -34 68 -111 186 -41 64 -84 132 -94 150 -11 17 -25 32 -33
32 -10 0 -8 -7 6 -27z m727 -928 l50 -45 -81 3 c-80 2 -81 2 -71 25 6 12 13
22 17 22 4 0 10 9 13 20 7 29 16 25 72 -25z"/>
<path d="M6012 6137 c-18 -22 -5 -79 39 -175 21 -47 39 -90 39 -96 -1 -21 -37
-54 -82 -74 -39 -17 -46 -24 -41 -41 3 -12 16 -29 28 -39 21 -17 22 -22 13
-77 -17 -113 22 -210 97 -235 50 -17 64 -2 22 24 -45 27 -72 62 -80 102 l-6
31 37 -10 c28 -7 46 -6 75 6 35 15 37 18 25 37 -9 15 -19 19 -33 14 -39 -12
-70 -14 -82 -7 -7 5 -13 29 -14 53 -2 26 -11 56 -21 70 l-19 24 50 23 c28 12
51 27 51 32 0 22 16 10 35 -25 18 -34 82 -112 162 -196 43 -46 39 -68 -14 -68
-43 0 -56 -7 -70 -35 -12 -22 -2 -58 18 -70 9 -6 10 -1 7 19 -6 27 15 48 39
39 6 -2 28 3 48 11 29 13 36 20 32 36 -6 25 -8 25 31 -4 l33 -24 -34 -20 c-19
-11 -49 -23 -66 -27 -22 -5 -31 -12 -31 -27 0 -18 4 -20 36 -15 114 19 265
136 297 231 31 90 16 255 -24 277 -11 5 -19 15 -19 21 0 18 -51 60 -100 81
-76 34 -159 27 -252 -21 -5 -2 -8 3 -8 11 0 8 -16 25 -35 38 -19 13 -38 32
-41 42 -7 21 -68 63 -105 72 -16 4 -30 1 -37 -8z m343 -157 c-3 -5 -16 -10
-28 -9 -21 0 -21 1 -2 9 28 12 37 12 30 0z m193 -64 c38 -55 24 -60 -18 -7
-22 28 -40 53 -40 56 0 12 38 -20 58 -49z m-180 -129 c12 -29 40 -77 62 -106
39 -52 48 -71 33 -71 -9 1 -119 181 -128 210 -14 43 13 17 33 -33z m132 -107
c6 -11 8 -20 6 -20 -3 0 -10 9 -16 20 -6 11 -8 20 -6 20 3 0 10 -9 16 -20z
m20 -92 c0 -26 -13 -16 -17 13 -2 12 1 18 7 14 5 -3 10 -16 10 -27z"/>
<path d="M3630 6055 c-16 -19 -5 -154 48 -565 11 -85 27 -186 35 -225 17 -80
38 -227 46 -330 5 -56 9 -70 24 -73 16 -3 17 3 12 70 -3 40 -8 93 -12 118 -4
25 -6 48 -5 51 4 20 -30 264 -38 269 -9 5 -35 168 -45 275 -2 33 -7 71 -9 85
-3 14 -7 56 -11 94 -3 38 -8 73 -11 77 -2 4 -7 43 -10 86 -3 43 -7 79 -9 81
-1 1 -8 -4 -15 -13z"/>
<path d="M1915 5964 c-49 -116 -56 -145 -57 -231 0 -49 2 -95 5 -103 2 -8 7
-33 11 -55 16 -79 64 -200 94 -235 7 -8 26 -32 42 -53 32 -42 181 -178 252
-229 175 -127 313 -216 437 -283 129 -71 226 -148 384 -308 123 -124 145 -181
152 -382 4 -105 1 -132 -21 -215 -14 -52 -27 -102 -29 -110 -20 -79 -129 -351
-156 -390 -9 -14 -33 -61 -53 -105 -56 -121 -79 -166 -102 -200 -11 -17 -33
-55 -49 -85 -16 -30 -44 -75 -63 -99 -18 -25 -35 -56 -39 -70 -3 -14 -9 -30
-13 -36 -5 -5 -21 -41 -36 -80 -15 -38 -32 -77 -39 -85 -6 -8 -22 -37 -34 -63
-25 -55 -42 -65 -74 -45 -26 17 -57 12 -57 -8 0 -7 16 -24 34 -36 19 -13 37
-32 40 -42 3 -11 -4 -51 -15 -90 -11 -39 -24 -91 -29 -116 -9 -49 -36 -130
-55 -170 -7 -14 -18 -50 -24 -80 -7 -30 -23 -83 -37 -118 -28 -71 -33 -145
-13 -191 9 -21 37 -43 89 -73 l75 -43 125 1 c73 1 168 10 230 21 58 10 110 18
115 18 6 -1 46 -5 90 -9 44 -5 107 -17 140 -27 82 -25 144 -33 207 -24 43 5
58 13 78 38 15 19 20 32 13 34 -7 3 -9 11 -6 19 3 8 -7 31 -22 52 -26 35 -174
183 -185 184 -16 2 -29 11 -25 18 2 4 -9 20 -25 35 -16 15 -27 32 -24 37 3 4
0 8 -6 8 -6 0 -16 11 -22 25 -6 14 -17 25 -25 25 -7 0 -13 7 -13 15 0 8 -4 15
-9 15 -11 0 -33 59 -26 70 3 5 1 11 -5 15 -5 3 -10 15 -10 26 0 10 -4 19 -10
19 -5 0 -10 5 -10 10 0 6 12 10 27 10 33 0 95 42 114 76 7 14 21 30 31 35 10
5 18 16 18 24 0 7 3 15 8 17 4 2 34 43 66 91 32 48 69 99 82 112 13 13 24 33
24 43 0 11 7 25 15 32 8 7 15 21 15 31 0 10 8 23 18 28 9 6 14 11 9 11 -8 0 9
32 43 85 11 17 23 38 26 48 4 9 11 17 16 17 5 0 6 5 3 10 -3 6 -1 10 4 10 6 0
10 3 9 8 0 4 7 25 17 47 10 22 18 43 17 48 -1 4 3 7 10 7 6 0 9 3 5 6 -3 3 2
14 11 24 10 10 22 25 29 33 18 23 57 101 55 110 -2 5 7 11 18 14 11 3 18 9 15
13 -3 4 4 19 15 33 11 14 20 30 20 35 0 6 8 18 18 28 9 10 17 21 17 26 0 5 5
12 10 16 14 10 45 68 39 74 -2 3 2 11 11 18 8 7 15 19 15 26 0 8 5 14 10 14 6
0 10 5 10 12 0 6 8 20 17 31 10 10 18 24 19 30 2 25 17 57 25 57 5 0 9 7 9 16
0 9 8 31 19 48 10 17 21 51 25 76 7 51 14 85 16 85 1 0 3 23 5 50 1 28 7 67
13 88 6 20 7 37 2 37 -5 0 -8 17 -6 38 1 20 -1 44 -6 52 -4 8 -12 33 -18 56
-12 49 -50 108 -71 112 -9 1 -26 -5 -39 -16 -21 -17 -22 -20 -7 -48 16 -31 55
-190 59 -239 8 -100 -35 -273 -91 -375 -14 -25 -26 -50 -27 -55 -1 -6 -20 -40
-43 -75 -23 -36 -60 -95 -84 -132 -23 -37 -70 -111 -105 -164 -34 -53 -87
-147 -117 -208 -30 -61 -70 -140 -90 -176 -20 -36 -50 -90 -67 -120 -61 -108
-132 -225 -144 -235 -6 -5 -27 -30 -46 -55 -58 -77 -81 -100 -102 -100 -17 0
-174 55 -184 65 -2 2 10 22 26 46 41 62 157 249 172 279 7 14 41 69 76 122 35
53 64 99 64 101 0 3 21 41 46 84 73 121 83 140 144 263 115 230 164 348 200
475 29 108 32 131 34 272 1 111 3 122 20 127 17 4 18 11 13 58 -4 29 -9 63
-13 76 -11 38 10 24 35 -23 45 -86 118 -110 115 -39 -2 31 -51 147 -65 152 -5
2 -9 9 -9 15 0 18 -83 201 -95 209 -14 11 -25 10 -25 -2 0 -12 35 -92 107
-242 31 -65 54 -121 50 -124 -8 -9 -37 15 -37 30 0 6 -14 26 -30 45 -17 18
-30 39 -30 45 0 6 -16 29 -35 51 -19 22 -35 46 -35 53 0 7 -4 20 -9 30 -5 9
-16 32 -23 50 -13 32 -48 46 -48 18 0 -7 16 -56 36 -107 54 -140 71 -190 78
-231 8 -41 -8 -53 -19 -15 -6 19 -140 294 -170 349 -10 19 -35 33 -35 19 0
-15 30 -82 98 -221 l67 -135 1 -100 c2 -114 -9 -241 -26 -300 -42 -143 -92
-285 -109 -310 -4 -5 -20 -41 -36 -80 -16 -38 -38 -83 -49 -100 -11 -16 -33
-54 -48 -85 -15 -30 -32 -63 -38 -72 -25 -43 -31 -54 -42 -78 -7 -14 -23 -39
-35 -56 -13 -17 -23 -35 -23 -40 0 -11 -97 -176 -108 -184 -10 -7 -92 -151
-92 -161 0 -4 -6 -12 -14 -16 -7 -4 -23 -28 -35 -53 -58 -119 -93 -165 -119
-155 -9 4 -42 13 -72 21 -30 8 -57 18 -60 22 -3 4 -17 13 -31 20 -15 8 -37 24
-51 37 -13 12 -34 27 -46 34 l-21 11 24 37 c14 19 25 41 25 47 0 6 12 29 27
50 14 22 31 56 37 75 11 34 156 313 196 376 11 17 38 68 62 115 23 47 58 112
78 145 20 33 58 116 85 185 26 69 52 131 58 138 5 6 7 12 3 12 -3 0 1 17 9 38
8 20 16 48 19 62 2 14 16 72 29 130 14 58 25 112 25 120 3 56 2 178 -1 190 -2
8 -7 23 -12 33 -4 9 -5 24 -2 32 4 8 2 17 -2 20 -5 2 -12 17 -16 32 -6 27 -45
86 -95 143 -14 15 -38 45 -55 66 -43 54 -162 166 -193 184 -15 8 -29 17 -32
20 -32 35 -177 120 -203 120 -7 0 -28 11 -47 25 -19 14 -42 25 -52 25 -10 0
-18 3 -18 8 0 4 -20 18 -45 32 -25 14 -45 28 -45 32 0 5 -5 8 -11 8 -6 0 -21
8 -34 18 -12 9 -33 24 -45 32 -131 89 -365 314 -365 351 0 5 -6 14 -14 18 -7
5 -10 14 -7 20 4 6 -4 26 -19 45 -50 66 -64 150 -49 311 3 33 5 69 5 79 0 11
9 49 21 84 14 44 17 67 10 74 -7 7 -16 -1 -27 -28z m1805 -1744 c0 -5 -4 -10
-10 -10 -5 0 -10 5 -10 10 0 6 5 10 10 10 6 0 10 -4 10 -10z m-1045 -1864 c27
-13 75 -34 105 -47 30 -12 92 -40 137 -61 46 -21 87 -38 93 -38 6 0 25 -7 41
-16 23 -11 29 -20 23 -32 -13 -32 -4 -77 26 -125 17 -27 30 -51 30 -55 0 -4
20 -32 45 -62 25 -30 45 -58 45 -62 0 -4 33 -29 73 -55 39 -26 99 -73 131
-104 l59 -56 -22 -31 c-31 -44 -88 -51 -195 -23 -160 43 -214 49 -366 44 -242
-9 -261 -8 -317 16 -28 13 -61 33 -73 46 -20 21 -22 31 -16 72 15 103 26 143
39 143 8 0 7 3 -2 9 -11 7 -10 20 9 77 12 38 25 74 30 79 8 11 22 74 25 120 1
17 3 32 4 35 2 3 2 38 1 78 -2 83 0 84 75 48z"/>
<path d="M1663 5877 c-28 -62 -58 -137 -67 -168 -33 -119 -25 -328 19 -469 39
-125 156 -339 233 -425 57 -64 384 -325 407 -325 4 0 23 -11 40 -25 18 -13 70
-46 116 -73 46 -27 115 -68 153 -91 38 -24 103 -61 145 -84 68 -36 138 -77
196 -115 42 -27 99 -50 111 -45 21 8 35 62 22 86 -16 33 -80 88 -94 83 -7 -3
-15 2 -18 10 -3 8 -15 14 -26 14 -11 0 -20 4 -20 9 0 5 -8 12 -19 16 -17 5
-35 18 -80 57 -8 7 -20 13 -26 14 -7 1 -30 14 -53 28 -23 14 -44 26 -46 26 -3
0 -26 20 -50 44 -25 24 -57 47 -72 50 -38 10 -320 204 -344 238 -3 4 -21 14
-40 22 -44 20 -70 40 -70 55 0 7 -4 10 -9 7 -5 -3 -34 19 -66 49 -31 30 -60
55 -65 55 -5 0 -12 9 -15 20 -3 11 -11 20 -16 20 -13 0 -33 20 -42 43 -3 9
-11 17 -17 17 -5 0 -10 6 -10 14 0 8 -7 22 -16 30 -8 9 -13 16 -10 16 3 0 -2
9 -12 20 -9 12 -17 24 -17 28 0 4 -10 21 -23 39 -12 17 -22 37 -22 45 0 13
-40 98 -50 108 -3 3 -5 12 -5 20 1 8 -3 23 -7 33 -7 14 -19 123 -18 162 1 37
9 114 14 135 4 14 10 48 15 75 4 28 22 87 40 133 26 66 30 86 21 97 -7 8 -18
15 -24 15 -6 -1 -34 -51 -63 -113z"/>
<path d="M6107 5733 c-11 -11 -8 -48 5 -61 18 -18 34 -14 46 12 9 20 7 27 -7
40 -19 17 -34 20 -44 9z"/>
<path d="M3802 4763 c-4 -10 -7 -45 -7 -78 0 -51 6 -71 39 -130 34 -62 88
-141 146 -215 11 -14 20 -30 20 -36 0 -18 48 -57 64 -51 19 7 23 41 13 97 -11
65 -13 73 -22 93 -10 23 -4 28 16 14 16 -12 99 -122 99 -131 0 -16 64 -103 83
-113 28 -14 55 -71 76 -158 11 -47 5 -305 -8 -355 -7 -25 -14 -52 -16 -60 -9
-35 -25 -80 -55 -150 -52 -126 -74 -172 -109 -240 -72 -137 -86 -162 -118
-207 -13 -17 -23 -34 -23 -37 0 -10 -131 -209 -167 -253 -19 -23 -48 -68 -65
-100 -85 -159 -104 -192 -126 -210 -7 -6 -26 -42 -41 -80 -31 -74 -42 -79 -89
-42 -33 26 -98 26 -112 0 -24 -46 21 -82 217 -174 60 -29 61 -30 67 -76 17
-125 92 -226 256 -346 42 -31 102 -104 95 -116 -12 -18 -97 -21 -182 -5 -98
18 -189 21 -198 7 -3 -5 -19 -12 -36 -16 -25 -6 -30 -11 -27 -33 2 -19 11 -28
33 -34 16 -4 32 -4 35 0 8 12 119 6 210 -10 125 -23 149 -22 174 4 66 68 77
112 36 148 -11 9 -20 23 -20 29 0 6 -8 14 -17 18 -10 3 -33 21 -51 40 -18 18
-36 33 -39 33 -8 0 -43 41 -43 52 0 4 -6 8 -13 8 -16 0 -53 40 -61 68 -4 11
-13 23 -21 26 -8 3 -12 12 -9 21 4 9 1 15 -7 15 -14 0 -51 95 -41 104 3 4 22
6 41 6 50 0 76 21 108 88 15 31 39 75 52 97 14 22 25 42 26 45 0 3 28 55 61
115 34 61 70 126 79 145 10 19 27 45 38 58 11 12 16 22 11 22 -5 0 -4 4 1 8
13 9 44 71 49 97 2 11 20 44 40 74 20 29 36 59 36 67 0 8 5 14 11 14 6 0 9 7
5 15 -3 8 -2 15 2 15 9 0 61 105 67 135 2 11 20 56 41 100 21 44 39 87 40 95
1 8 7 28 13 44 6 16 9 31 6 34 -3 3 4 12 15 19 11 8 18 19 14 24 -3 5 0 16 6
24 7 8 9 15 5 15 -5 0 -2 8 6 18 8 9 16 31 18 47 2 17 7 35 13 42 5 7 11 22
13 35 5 28 13 63 15 63 3 0 10 40 16 90 15 131 23 335 13 335 -4 0 -6 12 -5
26 3 27 -49 144 -88 198 -29 41 -85 96 -96 96 -19 0 -9 -29 35 -101 25 -40 45
-85 45 -100 0 -16 4 -30 9 -33 12 -8 20 -65 27 -208 9 -158 -20 -343 -67 -430
-6 -11 -12 -27 -14 -36 -3 -16 -56 -150 -112 -287 -47 -112 -145 -310 -197
-394 -82 -134 -105 -173 -127 -216 -11 -22 -66 -112 -122 -200 l-103 -160 -44
-6 c-31 -4 -52 -2 -67 9 -13 8 -23 11 -23 8 0 -4 -12 1 -26 10 -20 14 -24 22
-19 43 4 14 12 33 20 41 7 8 16 25 19 37 4 12 25 54 46 93 21 39 42 80 45 90
4 11 10 20 15 20 5 0 11 13 15 30 4 16 11 32 16 36 5 3 40 52 78 109 37 56 73
109 80 116 21 25 91 139 91 149 0 6 5 10 12 10 6 0 8 3 5 7 -4 3 -3 11 2 17
11 14 52 89 104 186 22 41 43 77 47 80 12 8 50 87 44 92 -2 3 2 11 11 18 8 7
15 19 15 26 0 8 5 14 11 14 5 0 7 4 4 10 -3 5 0 24 8 42 33 76 37 91 37 133 0
24 4 47 10 50 5 3 10 16 9 28 0 12 3 51 6 87 8 78 8 156 2 190 -8 42 -55 169
-71 192 -9 12 -13 31 -10 43 3 12 -2 40 -11 61 l-16 39 44 -44 c35 -34 50 -42
66 -36 14 4 20 13 17 23 -2 9 -8 32 -11 51 -4 18 -22 54 -41 80 -78 107 -90
123 -113 152 -17 21 -27 27 -34 20 -8 -8 -6 -15 4 -23 51 -43 168 -227 169
-265 0 -29 -30 -9 -68 45 -22 32 -57 76 -76 98 -20 21 -36 42 -36 46 0 9 -25
41 -59 77 -40 42 -36 7 6 -51 47 -65 126 -223 121 -239 -2 -7 -19 14 -38 47
-18 32 -63 88 -99 124 -69 68 -131 117 -131 103 1 -7 11 -57 26 -122 2 -13 11
-36 19 -52 17 -32 20 -69 5 -69 -5 0 -10 8 -10 18 0 10 -7 28 -16 40 -8 12
-12 22 -7 22 4 0 3 4 -3 8 -6 4 -24 32 -40 62 -16 30 -35 61 -41 68 -7 7 -13
22 -13 32 0 10 -5 20 -11 22 -10 3 -15 31 -25 132 -2 27 -9 55 -15 63 -16 19
-48 16 -57 -4z"/>
<path d="M3581 4753 c7 -10 36 -40 64 -68 48 -48 123 -182 161 -289 21 -57 84
-185 96 -192 17 -11 33 13 19 30 -6 7 -11 18 -10 22 2 9 -11 42 -58 144 -13
30 -27 66 -30 80 -2 14 -11 32 -19 41 -8 8 -14 19 -14 22 0 9 -71 119 -87 135
-7 7 -16 18 -20 25 -16 25 -75 67 -95 67 -18 0 -19 -2 -7 -17z"/>
<path d="M7182 4434 c48 -60 219 -235 420 -433 48 -46 78 -69 83 -62 4 7 -63
80 -169 186 -97 95 -176 178 -176 184 0 5 -13 18 -30 28 -16 9 -30 21 -30 25
0 11 -132 138 -143 138 -4 0 16 -30 45 -66z"/>
<path d="M2917 3928 c-13 -29 -27 -66 -31 -82 -11 -46 -169 -445 -197 -498 -5
-10 -9 -23 -9 -30 0 -7 -7 -26 -16 -43 -8 -16 -25 -57 -36 -90 -11 -33 -29
-80 -40 -105 -32 -72 -45 -103 -58 -140 -15 -43 -21 -57 -59 -143 -17 -38 -31
-76 -31 -86 0 -10 -3 -21 -7 -24 -19 -20 -39 -104 -31 -129 18 -52 36 -42 58
32 11 38 25 72 30 75 6 4 8 11 5 16 -4 5 -1 9 5 9 6 0 8 5 5 10 -3 6 -1 10 5
10 7 0 10 6 7 14 -3 8 1 20 9 27 12 10 12 14 2 20 -11 7 -11 9 0 9 7 0 11 4 7
9 -3 5 -1 12 5 16 13 8 45 78 61 135 7 25 16 49 21 55 4 5 8 16 8 25 0 8 9 34
20 58 10 23 20 46 21 50 2 4 9 13 16 21 8 7 12 19 9 27 -3 7 2 18 10 25 8 7
14 19 13 28 -2 9 5 34 15 56 10 22 19 45 20 52 1 7 5 16 9 19 4 4 7 15 7 25 0
10 11 38 24 63 21 39 38 90 40 118 1 3 4 10 9 14 4 4 7 15 7 25 0 10 6 22 14
26 8 4 15 11 15 16 0 15 33 122 44 142 6 11 12 30 12 43 1 12 9 30 18 40 10
10 14 21 11 24 -3 4 2 17 10 31 13 19 14 26 4 34 -33 25 -37 23 -61 -29z"/>
<path d="M7985 3870 c36 -37 82 -64 172 -101 17 -7 29 -17 27 -21 -3 -4 0 -8
6 -8 7 0 10 7 7 15 -4 8 -2 17 3 20 17 10 11 35 -5 28 -19 -7 -99 22 -115 43
-7 7 -19 14 -27 14 -8 0 -31 11 -51 25 -54 37 -61 30 -17 -15z"/>
<path d="M7700 3891 c0 -6 24 -38 54 -73 49 -58 131 -118 181 -133 11 -3 2 4
-19 15 -48 27 -125 103 -160 158 -24 38 -56 57 -56 33z"/>
<path d="M7940 3833 c1 -25 202 -137 230 -128 31 10 24 25 -12 25 -18 0 -51
11 -73 25 -22 13 -47 25 -55 25 -8 0 -30 14 -49 30 -36 32 -41 35 -41 23z"/>
<path d="M7905 3774 c79 -74 113 -94 155 -92 33 1 33 1 6 5 -28 4 -157 94
-186 128 -7 8 -18 15 -24 15 -6 0 16 -26 49 -56z"/>
<path d="M7333 2843 c-26 -17 -29 -46 -10 -83 7 -14 23 -61 36 -105 13 -44 27
-88 32 -97 5 -10 24 -62 43 -115 19 -54 37 -105 40 -114 5 -12 -7 -22 -54 -43
-33 -15 -60 -31 -60 -37 0 -5 -6 -9 -13 -9 -7 0 -23 -10 -36 -21 -19 -18 -25
-19 -36 -8 -7 8 -16 28 -18 44 -3 17 -20 62 -38 100 -18 39 -34 75 -35 81 -2
12 -18 49 -65 151 -16 34 -33 73 -39 87 -11 29 -30 35 -30 9 0 -9 12 -41 26
-71 14 -29 27 -63 29 -73 6 -28 45 -136 68 -189 11 -25 21 -47 22 -50 47 -165
53 -170 142 -117 78 47 139 77 156 77 8 0 28 -28 45 -62 44 -88 83 -156 116
-206 43 -63 40 -115 -7 -159 -37 -33 -76 -44 -79 -20 0 6 -2 24 -2 39 -1 15
-4 30 -7 33 -4 3 0 22 7 43 7 20 13 50 14 66 0 28 -1 28 -19 12 -29 -26 -45
-97 -37 -165 l7 -60 -40 -11 c-24 -6 -65 -32 -98 -61 -31 -27 -77 -63 -102
-79 -39 -26 -47 -28 -64 -17 -25 16 -30 42 -16 82 10 31 59 108 72 113 4 2 7
9 7 16 0 8 10 26 22 42 19 24 23 40 22 104 0 84 -16 129 -40 110 -7 -7 -11
-16 -9 -21 3 -4 7 -29 9 -56 4 -51 -19 -122 -52 -155 -29 -29 -37 -41 -65
-101 -15 -32 -27 -68 -27 -82 0 -49 76 -106 130 -96 21 4 76 43 134 96 48 44
83 61 187 90 46 13 67 26 107 69 28 30 54 66 58 80 10 41 -4 90 -39 137 -88
117 -170 284 -252 514 -62 174 -105 287 -114 297 -3 3 -16 -1 -28 -9z"/>
<path d="M5909 2702 c-8 -499 -17 -740 -29 -799 -25 -117 -59 -160 -180 -225
-91 -49 -124 -78 -133 -117 -9 -35 6 -55 63 -85 53 -28 126 -35 176 -16 52 20
148 22 209 4 100 -29 217 -6 200 38 -6 14 -12 14 -59 -2 -55 -20 -96 -17 -96
6 0 47 59 121 123 154 21 11 40 20 42 20 3 0 5 -17 5 -37 0 -41 14 -72 26 -60
11 11 13 94 13 477 -1 52 0 104 0 115 0 11 1 38 0 60 0 58 6 113 13 120 3 4 2
19 -2 35 -4 16 -7 30 -4 32 2 2 6 38 9 80 5 65 3 77 -11 82 -9 4 -18 5 -20 4
-1 -2 -5 -44 -9 -93 -4 -50 -10 -109 -15 -131 -4 -23 -8 -120 -8 -214 -1 -95
-4 -175 -7 -178 -3 -3 -22 0 -43 6 -21 6 -54 14 -73 16 -61 9 -134 32 -133 41
1 6 5 55 9 110 17 226 19 314 12 435 -2 36 0 67 4 70 4 3 0 22 -8 42 -10 25
-24 40 -44 47 l-29 10 -1 -47z m171 -733 c159 -41 153 -34 148 -162 l-3 -79
-39 -13 c-71 -25 -156 -131 -156 -196 0 -21 -4 -23 -29 -10 -9 5 -51 12 -94
15 -60 5 -87 2 -124 -12 -53 -20 -125 -18 -143 3 -9 10 -7 22 4 47 13 26 32
40 93 68 77 35 169 112 158 131 -4 5 -2 9 4 9 5 0 17 21 27 48 10 26 21 52 26
59 5 7 5 14 -2 18 -6 4 -7 12 -2 18 4 7 9 25 10 40 3 38 11 50 31 42 9 -4 50
-15 91 -26z"/>
<path d="M9969 2376 c-57 -39 -134 -172 -162 -280 -17 -65 -11 -132 23 -255
26 -91 54 -149 89 -179 102 -89 279 -192 329 -192 59 0 151 73 218 174 36 55
36 56 32 143 -7 117 -30 171 -137 321 -184 259 -294 334 -392 268z"/>
</g>
</svg>
